<?xml version="1.0" encoding="UTF-8" standalone="no"?>
<!-- Created with Inkscape (https://www.inkscape.org/) -->
<!-- ClipArt by Arvin61r58 (https://openclipart.org/user-detail/Arvin61r58) -->
<svg
   xmlns:dc="http://purl.org/dc/elements/1.1/"
   xmlns:cc="http://creativecommons.org/ns#"
   xmlns:rdf="http://www.w3.org/1999/02/22-rdf-syntax-ns#"
   xmlns:svg="http://www.w3.org/2000/svg"
   xmlns="http://www.w3.org/2000/svg"
   width="528.23535"
   height="235.00133"
   viewBox="0 0 139.76227 62.177435"
   version="1.1"
   id="svg8">
  <title
     id="title855">Flourish</title>
  <defs
     id="defs2" />
  <metadata
     id="metadata5">
    <rdf:RDF>
      <cc:Work
         rdf:about="">
        <dc:format>image/svg+xml</dc:format>
        <dc:type
           rdf:resource="http://purl.org/dc/dcmitype/StillImage" />
        <dc:title>Flourish</dc:title>
        <dc:subject>
          <rdf:Bag>
            <rdf:li>embellishment</rdf:li>
            <rdf:li>flourish</rdf:li>
            <rdf:li>footer</rdf:li>
            <rdf:li>header</rdf:li>
            <rdf:li>line rule</rdf:li>
            <rdf:li>ornamental line</rdf:li>
            <rdf:li>page rule</rdf:li>
          </rdf:Bag>
        </dc:subject>
        <dc:description>flourish</dc:description>
        <dc:creator>
          <cc:Agent>
            <dc:title>Arvin61r58</dc:title>
          </cc:Agent>
        </dc:creator>
        <dc:publisher>
          <cc:Agent>
            <dc:title>Openclipart.org</dc:title>
          </cc:Agent>
        </dc:publisher>
        <dc:identifier>https://openclipart.org/</dc:identifier>
        <dc:source>https://openclipart.org/user-detail/Arvin61r58</dc:source>
        <cc:license
           rdf:resource="http://creativecommons.org/publicdomain/zero/1.0/" />
      </cc:Work>
      <cc:License
         rdf:about="http://creativecommons.org/publicdomain/zero/1.0/">
        <cc:permits
           rdf:resource="http://creativecommons.org/ns#Reproduction" />
        <cc:permits
           rdf:resource="http://creativecommons.org/ns#Distribution" />
        <cc:permits
           rdf:resource="http://creativecommons.org/ns#DerivativeWorks" />
      </cc:License>
    </rdf:RDF>
  </metadata>
  <path
     id="path831"
     d="m 138.43819,11.845218 c -0.0162,-0.838318 -0.16675,-1.676754 -0.49816,-2.4272423 -0.33064,-0.74874 -1.61696,-1.840198 -1.61696,-1.840198 0,0 -1.28631,1.091458 -1.61695,1.840198 -0.50501,1.1436003 -0.5904,2.4915353 -0.41962,3.7315553 0.21522,1.562658 1.54518,4.097739 1.89343,4.74338 -0.52254,1.215116 -1.42468,2.474075 -2.83807,3.457153 -0.81406,0.534028 -1.643,0.923813 -2.4474,1.168921 -0.1178,0.0359 -0.23108,0.06649 -0.34261,0.09508 0.002,-0.0359 0.006,-0.07034 0.007,-0.106453 0.0199,-0.414084 0.0245,-0.842444 0.0139,-1.286227 -0.46404,-3.671353 -2.23568,-5.778232 -4.51652,-6.892602 -0.12672,-0.06191 -0.25475,-0.120852 -0.38447,-0.176733 -1.1676,-0.503052 -2.45145,-0.765798 -3.75171,-0.859896 -0.28892,-0.02091 -0.57873,-0.03321 -0.86817,-0.03824 -0.28944,-0.005 -0.57832,-0.0025 -0.86609,0.0067 -1.17613,0.0397 -1.92472,0.0894 -2.51665,0.199988 -0.14798,0.02765 -0.28594,0.05906 -0.41858,0.09508 h -5.1e-4 c -0.39789,0.108102 -0.74548,0.257676 -1.15755,0.469739 -7.92569,5.044369 4.42459,17.495655 5.80326,8.955525 0.11123,-0.689031 -0.44802,-2.351547 -1.03611,-2.517676 -1.18643,0.850969 0.96552,1.204635 -0.4439,2.725415 -1.20934,1.28728 -3.32604,0.437609 -4.4633,-1.791622 -0.73711,-1.444829 -0.69757,-3.600123 0.0873,-4.766634 0.87037,-1.2934 2.1039,-1.631102 5.48029,-1.499133 2.3172,0.096 5.91811,0.683728 6.55825,4.42712 1.03449,9.62858 -7.16929,13.611411 -14.36346,15.12414 -0.87221,0.177782 -2.04633,0.268494 -3.35638,0.294558 -1.94174,-1.019024 -4.08823,-2.170581 -5.3449,-3.160533 -0.53053,-0.417927 -0.92093,-0.815334 -1.16995,-1.21336 -0.22551,-0.360442 -0.34094,-0.728639 -0.34055,-1.147736 7.9e-4,-0.374071 0.0674,-0.796867 0.18294,-1.253152 0.63353,-0.01138 2.84602,-0.08312 3.90415,-0.57981 0.85426,-0.400995 1.6378,-1.0453 2.07016,-1.92443 0.28307,-0.575585 0.26406,-2.032951 0.26406,-2.032951 0,0 -1.36146,-0.520417 -1.99936,-0.453202 -0.9743,0.102662 -1.84926,0.615941 -2.52026,1.279508 -0.18142,0.179419 -0.36447,0.422039 -0.5426,0.698149 -0.007,0.01162 -0.0147,0.02444 -0.0222,0.03617 0.0413,-0.08822 0.0838,-0.181679 0.12402,-0.267167 0.20961,-0.444921 0.4001,-0.846299 0.52659,-1.161169 0.002,-0.004 0.004,-0.008 0.005,-0.01189 0.27704,-0.741086 0.30705,-1.388546 0.17001,-1.931665 -0.0457,-0.18104 -0.10976,-0.350544 -0.18965,-0.507979 -0.16008,-0.31539 -0.37931,-0.576422 -0.6289,-0.784448 -0.0624,-0.05201 -0.12651,-0.100814 -0.19224,-0.146245 h -5.2e-4 c -0.1972,-0.136292 -0.40711,-0.242828 -0.61805,-0.32091 -0.28713,-0.106271 -0.58002,-0.161278 -0.85369,-0.165882 -0.0694,-0.0012 -0.13771,8.21e-4 -0.20464,0.0062 -0.0669,0.0054 -0.13222,0.01383 -0.19585,0.02584 h -5.2e-4 c -0.12727,0.02401 -0.2469,0.0615 -0.35605,0.112137 -0.0559,0.02596 -0.10893,0.05542 -0.15865,0.08837 -0.0497,0.03295 -0.0959,0.06914 -0.13849,0.109037 h -5.2e-4 c -0.0852,0.0798 -0.15493,0.17372 -0.20619,0.28112 -0.10461,0.219178 -0.12522,0.481959 -0.0574,0.781348 0.0488,0.163611 0.13626,0.274466 0.22945,0.348816 0.0998,0.0796 0.21026,0.120736 0.30127,0.142627 0.0614,0.01478 0.11487,0.02324 0.1602,0.0279 0.0453,0.0047 0.0824,0.0053 0.11214,0.0041 0.0595,-0.0024 0.0884,-0.01188 0.0884,-0.01188 0,0 -0.0303,0.0028 -0.0879,-0.0067 h -5.2e-4 c -0.0575,-0.0095 -0.14176,-0.03131 -0.2496,-0.08062 -0.0805,-0.0368 -0.16545,-0.09121 -0.23254,-0.171049 -0.0307,-0.0365 -0.0581,-0.07835 -0.0796,-0.127124 -0.0107,-0.02438 -0.0198,-0.05064 -0.0274,-0.07855 -0.008,-0.02791 -0.0136,-0.05766 -0.0176,-0.0894 -0.0123,-0.06682 -0.0194,-0.130077 -0.0217,-0.189653 -0.005,-0.119152 0.01,-0.223844 0.0393,-0.315226 0.0147,-0.04569 0.0331,-0.08807 0.0548,-0.127124 0.084,-0.151831 0.22196,-0.263981 0.40152,-0.334863 0.0887,-0.035 0.18784,-0.05985 0.29456,-0.0739 0.0534,-0.007 0.10838,-0.01134 0.16536,-0.01292 0.057,-0.0016 0.11568,-3.53e-4 0.1757,0.0036 0.23614,0.0158 0.48973,0.0751 0.73743,0.179834 0.48936,0.206909 0.94083,0.583313 1.18235,1.112594 0.23506,0.515227 0.28181,1.197938 -0.0641,2.058789 -0.14468,0.290107 -0.34962,0.661589 -0.58653,1.102258 -0.23831,0.44327 -0.49985,0.939712 -0.74672,1.460893 -0.17096,0.36094 -0.33167,0.730833 -0.47439,1.101223 -0.0132,-0.07912 -0.0315,-0.177065 -0.0481,-0.269751 -0.0125,-0.07004 -0.0218,-0.128204 -0.0362,-0.204636 -0.17967,-0.95513 -0.50518,-2.362554 -0.96428,-3.078366 -0.50949,-0.794342 -1.25099,-1.486468 -2.179196,-1.799891 -0.607716,-0.205205 -2.050004,0.0041 -2.050004,0.0041 0,0 -0.0843,0.354616 -0.14986,0.787033 -0.01638,0.108104 -0.03201,0.220819 -0.04444,0.334346 v 5.17e-4 c -0.0373,0.340581 -0.04906,0.685996 0.0072,0.91984 0.143375,0.595144 0.440561,1.130816 0.825273,1.590084 v 5.17e-4 c 0.07689,0.09176 0.157456,0.180614 0.240813,0.266133 0.166891,0.171223 0.345821,0.329311 0.532267,0.473873 0.935527,0.725374 3.122227,1.285266 3.703137,1.425752 -0.009,0.02649 -0.0192,0.05312 -0.0279,0.07958 -0.18545,0.564536 -0.31242,1.122296 -0.33952,1.645896 -0.0298,0.58471 0.10816,1.117668 0.39481,1.622639 0.22885,0.40314 0.54842,0.780391 0.93224,1.141532 0.12798,0.120382 0.26279,0.238847 0.40411,0.356052 0.94558,0.78422 2.34419,1.625777 3.76773,2.412254 -4.3932,-0.13352 -9.423177,-0.854835 -10.746628,-1.771984 -1.632794,-0.831484 -2.522723,-1.64819 -2.939873,-2.422075 -0.119186,-0.221109 -0.199757,-0.438644 -0.248046,-0.652155 -0.217308,-0.960806 0.219466,-1.838193 0.736388,-2.573486 0.229743,-0.326797 0.475231,-0.62538 0.686263,-0.890902 0.527582,-0.663816 0.839264,-1.120047 0.147793,-1.288294 -0.283892,-0.06908 -0.561353,-0.06024 -0.825788,0.01188 -0.05289,0.01443 -0.104764,0.03182 -0.15658,0.05116 -1.347367,0.502662 -2.314708,2.627477 -2.034501,4.241086 0.07543,0.43438 0.03603,0.701715 -0.08475,0.847492 -0.01725,0.02082 -0.03585,0.03878 -0.05633,0.05478 h -5.19e-4 c -0.491564,0.384056 -1.884339,-0.582229 -2.836003,-1.055749 -2.991133,-1.488344 -5.451276,-2.738281 -7.341668,-3.72277 -0.108638,-0.4884 -0.169646,-1.006743 -0.168982,-1.544609 0.0024,-1.620721 0.51974,-3.388028 1.66088,-4.829679 0.411617,-0.520012 0.891661,-0.98466 1.400947,-1.367875 0.127323,-0.0958 0.256138,-0.186623 0.386541,-0.271818 0.39121,-0.255576 0.793951,-0.461463 1.191141,-0.606682 0.132397,-0.04841 0.264165,-0.09005 0.394808,-0.12454 0.914501,-0.241465 1.771002,-0.132138 2.362647,0.469739 0.938911,0.955133 0.963433,3.057579 -0.278537,4.544942 -0.153633,0.183988 -0.332084,0.35696 -0.524515,0.511597 -0.06414,0.05155 -0.129495,0.101046 -0.196372,0.148311 h -5.16e-4 c -0.133746,0.09453 -0.271938,0.179901 -0.411861,0.254248 -0.06996,0.03717 -0.140004,0.07147 -0.210322,0.102836 h -5.19e-4 c -0.140634,0.06273 -0.280738,0.113436 -0.41806,0.149862 -0.06866,0.01821 -0.136443,0.03253 -0.203089,0.04341 h -5.16e-4 c -0.39992,0.06524 -0.756134,-0.006 -0.983922,-0.269234 -0.186115,-0.215125 -0.360762,-0.751645 -0.331761,-1.103809 0.02906,-0.352157 0.292032,-0.903486 0.555522,-1.194242 0.62711,-0.731221 0.887511,-0.491035 1.276408,-0.446484 0.204931,0.02347 0.261194,0.550535 0.460952,0.364835 0.183685,-0.170691 0.03039,-0.413858 -0.115755,-0.621667 -0.23336,-0.331851 -0.478544,-0.35198 -0.866095,-0.257349 -0.145338,0.03548 -0.25967,0.08264 -0.36277,0.146761 -0.03436,0.02137 -0.06708,0.04444 -0.09974,0.06976 h -5.16e-4 c -0.130611,0.101272 -0.253206,0.235872 -0.415996,0.415479 -0.49906,0.550585 -0.726678,0.999958 -0.776179,1.600419 -0.04953,0.600456 0.0364,0.968571 0.351917,1.333252 0.93132,1.076445 2.320784,0.433105 3.497977,-0.976685 0.419946,-0.502924 0.736502,-0.999272 0.956013,-1.480529 0.109755,-0.240629 0.195289,-0.477628 0.25735,-0.709518 0.310295,-1.159435 0.03437,-2.195729 -0.727088,-2.970361 -1.687912,-1.717085 -4.358304,-1.105951 -6.707085,1.861385 -1.1744,1.483664 -2.034376,3.180918 -2.228805,4.800224 -0.04941,0.411546 -0.06802,0.835684 -0.05839,1.258321 -1.381265,-0.734679 -2.273925,-1.240235 -2.513026,-1.433504 -0.08969,-0.0725 -0.177654,-0.156805 -0.263033,-0.251148 -0.597641,-0.660396 -1.075076,-1.82402 -1.230931,-3.046842 -0.0118,-0.09271 -0.0204,-0.178931 -0.02532,-0.259416 -0.0099,-0.160962 -0.0049,-0.299506 0.01809,-0.426331 0.05742,-0.317064 0.22824,-0.558398 0.567926,-0.877465 0.391509,-0.368511 0.780912,-0.574042 1.158068,-0.674378 0.06286,-0.01672 0.124917,-0.03071 0.187068,-0.04186 1.367319,-0.245297 2.552557,0.793358 3.08405,0.260966 0.04832,-0.0484 0.09152,-0.109527 0.128674,-0.186035 0.01857,-0.03825 0.0355,-0.08052 0.05116,-0.126607 0.356579,-1.049539 -1.493665,-2.431376 -2.26808,-2.431376 -0.06488,0 -0.129865,0.0022 -0.195336,0.0067 h -5.16e-4 c -0.720167,0.05015 -1.467959,0.372195 -2.07119,0.875399 -0.109715,0.09149 -0.214077,0.189032 -0.313161,0.291971 h -5.16e-4 c -0.09908,0.102939 -0.192116,0.211227 -0.278537,0.324528 -0.871207,1.142222 -0.964822,2.818306 -0.259932,4.659147 0.132945,0.347241 0.23926,0.677248 0.303342,0.929659 0.03204,0.126206 0.05352,0.23298 0.06253,0.312643 0.009,0.07966 0.0055,0.13248 -0.0124,0.150378 -0.0716,0.0716 -0.808371,-0.180246 -1.637109,-0.559656 -1.452301,-0.664886 -6.661182,-2.479953 -8.306469,-2.923335 -0.11752,-0.03167 -0.216583,-0.05663 -0.295074,-0.07338 h -5.16e-4 c -0.07849,-0.01675 -0.135893,-0.02532 -0.170016,-0.02532 -0.449482,-0.301604 -0.828498,-0.599349 -1.144633,-0.892969 -0.158067,-0.146811 -0.300445,-0.29258 -0.427881,-0.437183 -0.892051,-1.012226 -1.055775,-1.968796 -0.800468,-2.845304 0.07295,-0.250431 0.180057,-0.494402 0.314193,-0.731222 1.140169,-2.012972 4.229925,-3.513951 4.838464,-4.157368 0.03591,-0.03794 0.06337,-0.07248 0.08113,-0.104387 0.03544,-0.06369 0.0327,-0.115173 -0.01499,-0.153996 -0.762889,-0.6211623 -2.280809,-0.5601103 -3.325895,-0.185001 -1.065014,0.382256 -2.070473,1.252277 -2.49597,2.300635 -0.329914,0.812839 0.05913,2.179711 -0.04961,2.179711 -0.47331,0 -1.687919,-3.414621 -1.932699,-5.4332603 -0.249669,-2.058777 -0.230081,-2.214654 0.475941,-3.787882 0.535961,-1.194273 1.154287,-2.061932 1.84278,-2.592606 0.0765,-0.05896 0.153805,-0.113705 0.232027,-0.164332 0.469339,-0.303762 0.969195,-0.457336 1.496549,-0.457336 0.236471,0 0.452424,0.02823 0.645956,0.0832 0.06451,0.01832 0.1265,0.03989 0.186034,0.06408 0.416745,0.169296 0.7101,0.480733 0.862997,0.913122 0.10909,0.308758 0.146659,0.679403 0.105937,1.103809 -0.0673,0.70118 -0.214662,0.897166 -0.730703,0.969966 -0.09903,0.01398 -0.197038,0.01553 -0.291973,0.0052 -0.04747,-0.0052 -0.09402,-0.01338 -0.139525,-0.02429 h -5.19e-4 c -0.04534,-0.01088 -0.08953,-0.02502 -0.132292,-0.04134 h -5.15e-4 c -0.08583,-0.03277 -0.165481,-0.07595 -0.237197,-0.129191 -0.07168,-0.05324 -0.135099,-0.116312 -0.187584,-0.188102 -0.149008,-0.20376 -0.279503,-0.305083 -0.377238,-0.323495 -0.01955,-0.0037 -0.03744,-0.0038 -0.05426,-10e-4 h -5.16e-4 c -0.168175,0.02791 -0.193993,0.371478 0.03514,0.874365 0.444569,0.975741 1.674199,1.324991 2.562116,0.269751 0.90832,-1.079439 0.858184,-2.516044 -0.105936,-3.548104 -0.238712,-0.255544 -0.433972,-0.434496 -0.635103,-0.558105 -0.06704,-0.0412 -0.134459,-0.07631 -0.204637,-0.105937 h -5.19e-4 c -0.280712,-0.118512 -0.600871,-0.150732 -1.07797,-0.145727 -0.158208,0.0018 -0.328666,0.01234 -0.501777,0.02997 h -5.16e-4 c -0.51934,0.05291 -1.059924,0.169252 -1.348756,0.300757 -1.47252,0.670419 -3.070381,3.448813 -3.27887,5.700944 -0.045,0.486169 -0.145659,0.947677 -0.223758,1.025777 -0.0781,0.0781 -0.766533,-0.419279 -1.529623,-1.105359 -1.296088,-1.1653 -2.554668,-1.941448 -3.847827,-2.363163 -0.11756,-0.03834 -0.235283,-0.07394 -0.353467,-0.106454 -0.472888,-0.130097 -0.950971,-0.213373 -1.438154,-0.252181 -1.353759,-0.107845 -1.66412,-0.0478 -2.068607,0.401009 -0.589992,0.654625 -0.360622,1.865702 0.407209,2.14974 0.288679,0.106795 1.494171,0.0504 2.67839,-0.125057 0.249111,-0.0369 0.470837,-0.0692 0.669208,-0.09612 0.198374,-0.02692 0.373447,-0.04827 0.530202,-0.0646 0.940525,-0.09795 1.213969,-4.6e-5 1.805574,0.359151 0.06637,0.0403 0.135946,0.08577 0.207738,0.136426 0.07179,0.05065 0.145931,0.106434 0.22221,0.166398 1.067914,0.839455 2.529581,2.5397723 3.104203,3.6633433 0.238249,0.465854 0.664805,1.473447 1.016476,2.385901 -0.395171,-0.461239 -0.806786,-0.882201 -1.17874,-1.123446 -0.844536,-0.547737 -1.869543,-0.893921 -2.909384,-0.790133 -0.680805,0.06795 -1.990059,0.905888 -1.990059,0.905888 0,0 0.295921,1.526163 0.716235,2.066024 0.641975,0.824566 1.599579,1.328376 2.578653,1.562178 0.983983,0.234965 2.757498,0.0021 3.75326,-0.161747 0.326888,0.76658 0.663274,1.485184 1.079006,2.302702 l 0.359666,0.70745 -1.701704,-0.08372 c -0.234027,-0.01152 -0.464506,-0.02712 -0.680578,-0.04496 -0.216074,-0.01784 -0.417494,-0.03788 -0.59428,-0.05943 h -5.16e-4 c -0.353573,-0.04309 -0.606975,-0.09103 -0.675413,-0.133325 -0.38708,-0.239231 -4.955622,-0.965783 -7.619171,-1.211812 -1.129533,-0.104333 -2.074646,-0.28237 -2.851505,-0.540536 -0.110982,-0.03688 -0.218302,-0.07559 -0.322461,-0.115755 -0.833464,-0.32127 -1.449896,-0.74809 -1.873756,-1.290281 -0.147918,-0.189228 -0.332631,-0.492825 -0.533299,-0.86558 -0.602001,-1.118256 -1.349362,-2.860618 -1.691886,-4.018359 -0.07797,-0.263548 -0.13535,-0.468425 -0.168466,-0.6371713 -0.09934,-0.506233 0.01939,-0.686995 0.453202,-1.148767 0.63323,-0.674065 1.302515,-0.804873 2.039152,-0.393257 0.05667,0.03166 0.113567,0.0663 0.171051,0.104386 0.114956,0.07616 0.231455,0.165327 0.349848,0.267167 0.506709,0.63001 0.34598,0.641915 0.234611,1.1942423 -0.316701,0.349981 -0.685541,0.500609 -0.989603,0.40411 -0.521282,-0.165446 -0.650052,0.375289 -0.278021,0.665076 0.02658,0.0207 0.05562,0.04009 0.08733,0.05788 0.03173,0.01779 0.06588,0.03387 0.102835,0.04806 0.595078,0.228351 1.270659,-0.201858 1.624709,-0.83199 0.07081,-0.126026 0.129198,-0.260074 0.171048,-0.3984253 0.0837,-0.276702 0.102811,-0.570688 0.03204,-0.852662 -0.131821,-0.525218 -0.437804,-0.940215 -0.840259,-1.225764 -0.08049,-0.05711 -0.164597,-0.10896 -0.252182,-0.155547 -0.175279,-0.09327 -0.363432,-0.16521 -0.559655,-0.214457 -0.09804,-0.0246 -0.197805,-0.0437 -0.299206,-0.05684 h -5.19e-4 c -0.709806,-0.092 -1.486469,0.100769 -2.117183,0.631486 l -0.826822,0.695557 -0.582393,-0.546736 c -0.240329,-0.225739 -0.747228,-0.488014 -1.259871,-0.666627 -0.08544,-0.02977 -0.170728,-0.05708 -0.255281,-0.08165 h -0.001 c -0.08455,-0.02457 -0.167828,-0.04634 -0.249081,-0.0646 -1.476119,-0.331578 -2.864808,-0.0588 -2.638597,1.072286 0.06185,0.30923 0.192997,0.519261 0.378272,0.660425 0.04632,0.03529 0.09593,0.06638 0.148828,0.09353 0.581811,0.298652 1.547312,0.133325 2.593123,0.133325 0.100422,0 0.197919,0.01253 0.291454,0.03462 0.04661,0.01101 0.09223,0.02431 0.136943,0.03979 h 0.001 c 0.04487,0.01555 0.08842,0.03334 0.13126,0.05271 0.514027,0.232374 0.877769,0.7150203 0.98547,0.8583453 0.136681,0.181901 0.697822,1.342758 1.246952,2.579687 0.549121,1.23693 1.363586,2.712282 1.810224,3.278353 l 0.811834,1.028891 -4.60592,-0.187585 c -0.602744,-0.02458 -1.132318,-0.03743 -1.658297,-0.04961 -0.307414,-2.114299 -1.20388,-4.78615 -3.171899,-7.3349523 -0.884528,-1.123371 -1.945568,-2.058573 -3.093868,-2.687692 -0.317511,-0.173963 -0.623774,-0.310115 -0.923975,-0.426847 -0.20142,-0.160536 -0.583803,-0.459043 -1.048515,-0.790649 -0.1549,-0.110536 -0.318751,-0.224568 -0.488341,-0.338481 -0.678461,-0.455737 -1.445403,-0.907183 -2.067574,-1.104325 -1.01215,-0.320707 -2.16354,-0.443446 -3.221508,-0.187069 -0.692689,0.167861 -1.853634,1.082621 -1.853634,1.082621 0,0 0.677011,1.229035 1.245402,1.612305 0.86814,0.585401 1.988082,0.850153 3.064412,0.886251 1.373209,0.04599 3.803025,-0.717286 4.371827,-0.902271 0.24112,0.131709 0.483896,0.276862 0.728636,0.452686 1.013661,0.728213 1.891829,1.746668 2.562119,2.8980143 1.384998,2.317616 1.941891,4.534316 2.162656,6.343282 0.01979,0.16198 0.03643,0.320723 0.05116,0.47594 -1.349517,0.0063 -2.37813,0.06914 -3.117122,0.192753 -3.407958,0.57036 -4.603247,0.569704 -6.136058,-0.0036 -1.996011,-0.7468 -3.186644,-1.759398 -3.396175,-2.746603 -0.021,-0.09872 -0.03239,-0.197147 -0.03359,-0.295072 -0.003,-0.244811 0.0567,-0.486378 0.181382,-0.719853 0.0499,-0.09339 0.109958,-0.185396 0.180869,-0.275952 0.10635,-0.135835 0.23653,-0.268016 0.391189,-0.395841 0.494562,-0.408766 1.342845,-0.569568 2.037086,-0.45837 0.12623,0.02022 0.247732,0.04949 0.360701,0.08785 0.16946,0.05753 0.320397,0.135442 0.442867,0.234611 0.528241,0.427731 0.57285,0.583018 0.30851,1.076937 -0.3092,0.577763 -0.590881,0.698704 -0.849561,0.362252 -0.0862,-0.112151 -0.169839,-0.275005 -0.251148,-0.488859 -0.078,-0.205025 -0.14459,-0.34596 -0.210839,-0.428398 -0.110561,-0.137331 -0.219681,-0.113108 -0.37362,0.04083 -0.24633,0.246312 -0.227413,0.477049 0.08475,1.035079 0.184679,0.330104 0.395218,0.55914 0.613399,0.686263 0.0873,0.05085 0.175416,0.08507 0.264067,0.103353 0.398889,0.08229 0.80032,-0.16526 1.100191,-0.745175 0.602901,-1.165888 0.321805,-2.049569 -0.800984,-2.518709 -0.809773,-0.32932 -1.718204,-0.338061 -2.465483,-0.0248 h -5.18e-4 c -0.960559,0.402864 -1.654421,1.338082 -1.528071,2.808613 l 0.172082,1.297079 -2.496487,0.01344 c -3.059641,0.01659 -5.025731,0.65702 -6.231662,2.02985 l -5.16e-4,0.001 c -0.445,0.507129 -0.809771,1.188455 -0.809771,1.514636 0,0.807429 0.715323,1.769401 1.315683,1.769401 0.536358,-0.06797 0.949698,-0.463702 1.31775,-0.976168 v -5.17e-4 c 0.55209,-0.768836 1.003117,-1.800088 1.616437,-2.382283 0.0682,-0.06468 0.138301,-0.124127 0.210841,-0.176733 0.23835,-0.232744 0.429747,-0.412154 0.611849,-0.552422 0.546299,-0.420803 1.00929,-0.490034 2.408121,-0.595829 1.887911,-0.14278 2.112714,-0.0987 4.072101,0.798918 1.140582,0.522492 2.301743,0.985163 2.580722,1.028361 0.0896,0.01388 0.170249,0.03574 0.241329,0.06356 0.0356,0.01391 0.06852,0.02943 0.09922,0.04599 0.0922,0.04968 0.162587,0.11022 0.209291,0.173633 0.15557,0.211378 0.0487,0.456819 -0.38344,0.456819 -0.308281,0 -0.823851,0.16548 -1.146185,0.36742 -2.496539,1.430737 -4.898128,2.820294 -6.793899,4.597135 -1.644769,0.18933 -3.239783,0.325142 -4.425053,0.271818 -0.73724,-0.03318 -1.33699,-0.133888 -1.811258,-0.321427 -0.429361,-0.169762 -0.766178,-0.413943 -1.031978,-0.771013 -0.271711,-0.365904 -0.508402,-0.83401 -0.715203,-1.380794 -0.198639,-0.525115 -0.360334,-1.09911 -0.499195,-1.685168 -0.135729,-0.572845 -0.24474,-1.135636 -0.34313,-1.653646 -0.0962,-0.506586 -0.181684,-0.964801 -0.269235,-1.309998 -2.7e-4,-0.0049 -5.53e-4,-0.0091 -0.0026,-0.01292 -0.299199,-1.066571 -0.882719,-1.724477 -1.566828,-2.06654 -0.685361,-0.342531 -1.442865,-0.355107 -2.075325,-0.19017 -0.194109,0.05063 -0.376661,0.11974 -0.54622,0.201022 -0.195709,-0.462153 -0.943951,-2.169424 -1.6670812,-2.92437 -0.578231,-0.603655 -1.324761,-1.123506 -2.146641,-1.34617 -0.53811,-0.145795 -1.673281,0.04702 -1.673281,0.04702 0,0 0.014,1.104172 0.264065,1.583366 0.38186,0.731939 1.054267,1.337958 1.781286,1.769401 0.837981,0.497279 2.5320602,0.867971 3.2008392,1.001489 -0.0255,0.01558 -0.0525,0.03029 -0.077,0.04651 -0.250092,0.164702 -0.239003,0.316174 -0.397394,0.435116 -0.18188,0.136627 -0.5109052,0.224066 -0.7544752,0.312642 -0.588719,-0.212513 -2.763665,-0.968337 -4.044714,-0.972551 -1.025912,-0.0034 -2.111944,0.204248 -2.985866,0.716752 -0.572187,0.335499 -1.318781,1.450558 -1.318781,1.450558 h 0.001 c 0,0 0.0637,0.05513 0.170016,0.141077 0.318892,0.257841 1.017474,0.790686 1.500685,0.925008 0.98403,0.273559 2.08865,0.199388 3.077332,-0.06305 1.26316,-0.335309 3.215338,-1.668841 3.665407,-1.982824 0.149202,-0.0033 0.3107692,-0.01299 0.4201302,-0.04393 0.125722,-0.0356 0.235556,-0.113059 0.341066,-0.187586 0.002,-0.0017 0.0037,-0.0039 0.0067,-0.0057 -0.29791,0.730532 -0.7768332,2.009025 -0.8092552,2.826701 -0.0325,0.818718 0.11643,1.691231 0.5369192,2.403471 0.27527,0.466333 1.223698,1.09399 1.223698,1.09399 0,0 0.800844,-0.793702 0.975135,-1.302763 0.2662,-0.777513 0.233328,-1.661084 0.03359,-2.457731 -0.24239,-0.966666 -1.249521,-2.455247 -1.577681,-2.924886 0.0378,-0.03171 0.07641,-0.06337 0.122989,-0.09095 0.22003,-0.130252 0.483208,-0.234078 0.76998,-0.295589 0.566589,-0.121544 1.207052,-0.0755 1.758031,0.22841 0.536311,0.295871 1.011918,0.849248 1.251088,1.793172 0.0556,0.335199 0.109032,0.77595 0.178281,1.295528 v 5.17e-4 c 0.0696,0.522526 0.152559,1.104549 0.264068,1.698604 0.114091,0.607729 0.256842,1.220732 0.443902,1.794206 0.193678,0.593758 0.435102,1.146143 0.743622,1.608687 0.344882,0.516284 0.806169,0.886306 1.381829,1.142049 0.61278,0.272222 1.338945,0.407122 2.139405,0.462505 0.953828,0.06598 2.135812,0.01077 3.372403,-0.09457 -0.622001,0.730151 -1.159878,1.528115 -1.595769,2.413289 l -0.0088,-0.01654 c -1.805011,1.005899 -4.295883,3.151437 -5.945375,6.616134 -0.565179,1.215223 -0.908698,2.491145 -0.969449,3.704167 -0.0168,0.335417 -0.007,0.645414 0.01602,0.941543 -0.137009,0.626253 -0.568438,2.733321 -0.40101,3.92121 0.13621,0.966412 0.4875,1.959332 1.110012,2.709394 0.407569,0.49108 1.605068,1.035595 1.605068,1.035595 0,0 0.732232,-1.092377 0.820621,-1.724443 0.135012,-0.965335 -0.08876,-1.995098 -0.481108,-2.88871 -0.500599,-1.140071 -2.07187,-2.785753 -2.444811,-3.168282 0.0124,-0.25454 0.03485,-0.516345 0.08165,-0.793234 0.1939,-1.146802 0.676439,-2.310808 1.34824,-3.363619 0.973249,-1.562336 2.074791,-2.744221 3.134691,-3.64784 h 5.18e-4 c 0.397489,-0.338867 0.78902,-0.638849 1.165821,-0.904853 0.0421,-0.02971 0.0828,-0.05639 0.124539,-0.08527 -0.0375,0.154231 -0.07429,0.309224 -0.106452,0.468188 v 5.19e-4 c -0.116941,0.577847 -0.197869,1.18763 -0.239779,1.832446 0.18424,3.10052 1.136367,4.970441 3.694348,7.25692 0.27577,0.246499 0.53231,0.470898 0.776179,0.676444 0.365821,0.308327 0.702823,0.574427 1.033013,0.810805 1.210728,0.86672 2.328068,1.331243 4.420917,1.990575 3.29444,0.9961 9.230301,0.232039 12.189954,-3.15898 0.325311,-0.356502 0.61019,-0.721706 0.85421,-1.093473 v -5.18e-4 c 1.281372,-1.952409 1.434005,-4.088811 0.459404,-6.139673 -0.04641,-0.09766 -0.09473,-0.195246 -0.146243,-0.292489 -0.309142,-0.583454 -0.710864,-1.15874 -1.20406,-1.719791 -1.424684,-1.5987 -4.6749,-1.334236 -7.219199,-0.214974 -0.21817,0.113173 -0.426281,0.237873 -0.624253,0.371035 h -5.16e-4 c -0.593748,0.399442 -1.094213,0.875697 -1.487765,1.350823 v 5.16e-4 c -0.459089,0.554318 -0.772946,1.106776 -0.918805,1.533757 v 5.16e-4 c -0.0208,0.06083 -0.03829,0.119301 -0.05219,0.174668 -0.025,0.09957 -0.04243,0.202469 -0.05323,0.307991 -0.0108,0.105354 -0.01449,0.214111 -0.01188,0.324011 0.0315,1.320866 1.001752,2.919812 2.256192,3.595129 0.2091,0.112567 0.426164,0.199599 0.648023,0.255281 1.591479,0.399436 3.386216,-0.490265 3.750675,-1.453658 v -5.16e-4 c 0.142459,-0.377045 0.0661,-0.765172 -0.327629,-1.091922 -0.328358,-0.272521 -0.604916,0.15036 -1.455208,0.43098 -1.354018,0.26457 -2.251284,0.126933 -2.771923,-0.234093 h -0.001 c -0.36022,-0.249931 -0.540237,-0.607145 -0.565856,-1.011825 -0.006,-0.08996 -0.0038,-0.182443 0.0062,-0.276468 0.0647,-0.658003 0.488346,-1.399633 1.170987,-2.001946 l 5.16e-4,-5.16e-4 c 0.0976,-0.08606 0.200123,-0.168855 0.307991,-0.248563 0.323623,-0.23917 0.692306,-0.447048 1.098127,-0.60565 0.946909,-0.37007 2.096182,-0.473091 3.348633,-0.08578 0.178921,0.05533 0.360283,0.120896 0.543118,0.196887 0.182835,0.07599 0.367284,0.162494 0.553455,0.26045 1.36062,0.703602 1.898772,2.840501 1.353405,4.563028 v 5.19e-4 c -0.125849,0.397333 -0.309616,0.772784 -0.553972,1.103291 -0.72064,0.97472 -3.240825,2.626937 -5.018815,3.290237 -2.22663,0.830736 -5.843465,0.380788 -8.444444,-1.050581 -1.523452,-0.838391 -4.080542,-3.313668 -4.965073,-4.805908 -0.97392,-1.744678 -0.977347,-4.011488 -0.227375,-6.000152 v -5.16e-4 c 0.0394,-0.104521 0.081,-0.208224 0.12454,-0.311091 v -5.16e-4 c 0.52352,-1.236152 1.343123,-2.344312 2.404504,-3.123324 0.476729,-0.3983 0.914813,-0.747181 1.336352,-1.060401 0.42155,-0.313224 0.82632,-0.590821 1.237649,-0.846976 0.411364,-0.256157 0.829276,-0.49068 1.275377,-0.717786 0.44609,-0.227106 0.920594,-0.446757 1.446421,-0.672827 1.091412,-0.46922 3.153873,-1.392491 4.583184,-2.052071 1.9318,-0.891471 3.035229,-1.234355 4.299479,-1.335836 0.9354,-0.0751 1.70067,-0.07513 1.70067,5.17e-4 0,0.0378 -0.119268,0.190984 -0.311091,0.407727 v 5.16e-4 c -0.191805,0.216704 -0.456303,0.496621 -0.747242,0.787549 -0.902655,0.902671 -1.058333,1.223833 -1.058333,2.182813 0,0.94652 0.149225,1.26522 0.944647,2.015381 0.919395,0.867103 2.018136,1.142225 2.794661,0.791166 0.129421,-0.05851 0.24996,-0.134454 0.359151,-0.227893 0.109191,-0.09344 0.20714,-0.204633 0.291454,-0.333313 0.05019,-0.07731 0.08998,-0.153117 0.120407,-0.227377 v -5.16e-4 c 0.09135,-0.222938 0.09729,-0.433195 0.04039,-0.632997 -0.03799,-0.133167 -0.104084,-0.262288 -0.191201,-0.387573 -0.436232,-0.627017 -1.403879,-1.167226 -2.066025,-1.742012 -0.566122,-0.628582 -0.294654,-1.402101 0.688848,-1.964222 0.510733,-0.291918 2.724393,-0.375545 5.348509,-0.318326 0.874707,0.01907 1.795007,0.05392 2.713013,0.101802 0.220144,0.01148 0.437587,0.0258 0.656807,0.03876 1.180502,1.190909 1.66931,3.210931 0.597379,5.373832 -0.920369,1.857128 -2.753597,3.022253 -4.010606,2.190564 -0.87271,-0.577432 -1.23308,-2.180189 -0.52555,-3.518649 0.466791,-0.88311 1.522973,-1.636196 2.101164,-1.198376 0.177189,0.134173 0.397949,0.515763 0.433049,0.789616 0.035,0.27385 -0.07635,0.738009 -0.230479,1.003039 -0.360478,0.6607 -0.598841,0.519704 -0.903303,0.548804 -0.16044,0.01536 -0.288843,-0.378515 -0.411345,-0.204122 -0.112649,0.16031 0.0442,0.321233 0.189654,0.456303 0.23227,0.21572 0.422526,0.19111 0.703315,0.05581 0.280834,-0.135279 0.379015,-0.298381 0.569476,-0.625801 0.291999,-0.50185 0.392596,-0.882352 0.332795,-1.349272 -0.05998,-0.46668 -0.184806,-0.733751 -0.485243,-0.961181 -0.886626,-0.67137 -1.843944,0.04547 -2.514573,1.314131 -0.956961,1.81032 -0.665821,3.273733 0.466638,4.02301 1.568928,1.038061 3.510488,0.136832 4.823478,-2.512508 0.786804,-1.587594 0.996643,-3.628815 0.622183,-5.264794 0.531598,0.04211 1.051753,0.08682 1.539441,0.136425 0.803402,0.08172 1.532623,0.172748 2.139921,0.270785 0.910947,0.147055 1.54731,0.309833 1.747697,0.479557 0.370637,0.313925 0.80825,0.894143 1.15342,1.472262 0.345046,0.577981 0.597895,1.154193 0.597895,1.460892 -0.01685,1.401515 -0.95149,1.594276 -1.930631,1.578715 h -5.18e-4 c -1.258747,-0.0201 -2.590631,-0.384199 -2.138886,1.033012 0.01633,0.04675 0.03471,0.09175 0.05529,0.134359 0.04117,0.08521 0.0905,0.162055 0.147278,0.230992 0.823261,0.999884 3.190155,0.313135 4.274158,-1.404047 0.0499,-0.07904 0.09672,-0.156719 0.140044,-0.233061 v -5.16e-4 c 0.260194,-0.458583 0.401601,-0.871846 0.422196,-1.280543 v -5.16e-4 c 0.01024,-0.204267 -0.0096,-0.407866 -0.05994,-0.61495 -0.01678,-0.06893 -0.03745,-0.138781 -0.06098,-0.208773 -0.118012,-0.350775 -0.320786,-0.717075 -0.609782,-1.122928 -0.3081,-0.4327 -0.509924,-0.837271 -0.448035,-0.89917 0.0619,-0.0619 0.521435,0.01 1.021128,0.15968 0.499678,0.14968 1.980041,0.386632 3.28972,0.526583 0.196988,0.02105 0.385588,0.04358 0.565341,0.06718 h 5.16e-4 c 0.359799,0.04725 0.6848,0.09934 0.974619,0.15658 0.289819,0.05724 0.544121,0.119615 0.762743,0.186552 0.327933,0.100403 0.575189,0.211419 0.73949,0.332796 0.710678,0.524989 1.411538,2.150985 1.678966,3.895886 0.01852,0.120924 0.03349,0.230606 0.04393,0.331246 0.07294,0.704071 -0.07677,0.982204 -0.791684,1.817459 -0.314026,0.366872 -0.749331,0.766612 -1.151866,1.071769 h -5.18e-4 c -0.24139,0.182975 -0.470961,0.332163 -0.655257,0.419613 -0.49168,0.233331 -1.239821,0.923804 -1.66243,1.534274 -0.07859,0.11353 -0.14923,0.219641 -0.212907,0.320911 v 5.16e-4 c -0.254553,0.404889 -0.395301,0.729204 -0.462505,1.112594 -0.03361,0.191756 -0.04908,0.398417 -0.05116,0.637169 -0.0011,0.11938 0.0013,0.246801 0.0062,0.384474 0.05265,1.472057 0.427574,2.548184 0.960149,3.092318 0.05926,0.06057 0.119994,0.114546 0.182933,0.161748 0.377076,0.282784 0.816229,0.322241 1.268658,0.07803 1.03101,-0.55653 -0.939583,-1.288061 -1.250053,-3.285072 -0.08985,-0.592201 -0.02,-1.095709 0.172083,-1.549776 v -5.16e-4 c 0.422918,-0.999204 1.4386,-1.759609 2.651,-2.703711 l 1.386996,-1.242301 0.697114,0.827855 c 1.530789,1.819262 4.078851,2.354339 6.329331,1.329119 1.337101,-0.609122 1.723551,-1.815084 1.137396,-2.530594 -0.5641,-0.688621 -1.756627,-1.06615 -2.603458,0.593762 -0.07,0.137218 -0.145486,0.253743 -0.226343,0.352948 v 5.16e-4 c -0.565983,0.694114 -1.393232,0.530202 -2.413804,0.530202 -0.830906,0 -2.201215,-1.357371 -2.369884,-2.278931 -0.01122,-0.06144 -0.01702,-0.120734 -0.01705,-0.177765 -1.11e-4,-0.322395 -0.183785,-1.464332 -0.407726,-2.537831 -0.195826,-0.938776 -0.325453,-1.763369 -0.317812,-1.992643 v -5.17e-4 c 0.0011,-0.03221 0.005,-0.05306 0.01189,-0.05994 0.04241,-0.04241 0.400677,0.05465 0.975651,0.251664 0.574974,0.197016 1.366668,0.494088 2.275311,0.852145 1.817327,0.716104 4.10302,1.675796 6.061646,2.565735 0.789723,0.359793 2.149994,1.105584 3.588927,2.046903 0.03705,0.06587 0.07506,0.130876 0.11524,0.19327 0.172233,0.160583 0.329917,0.34322 0.472839,0.544153 0.619178,0.870685 0.957122,2.090883 0.955498,3.407544 -0.0013,0.810364 -0.131313,1.657009 -0.403593,2.481501 v 5.19e-4 c -0.170159,0.515149 -0.395962,1.021516 -0.68058,1.504817 v 5.16e-4 c -0.170764,0.289931 -0.362836,0.571617 -0.576707,0.841809 -1.646507,2.080041 -4.383238,3.276894 -5.735568,1.901177 -0.704096,-0.716264 -0.894361,-2.07759 -0.42168,-3.340883 v -5.16e-4 c 0.07876,-0.210431 0.17625,-0.418039 0.292489,-0.619601 v -5.16e-4 c 0.116343,-0.201684 0.251963,-0.396992 0.40721,-0.582909 0.204845,-0.245317 0.453392,-0.470802 0.720886,-0.659908 0.133747,-0.09458 0.272457,-0.179872 0.412377,-0.254249 0.279707,-0.148666 0.565539,-0.253021 0.831993,-0.296624 h 5.16e-4 c 0.199943,-0.03267 0.388972,-0.03123 0.556553,0.01137 0.111758,0.02839 0.213908,0.07517 0.303343,0.14211 0.04472,0.03347 0.08606,0.07188 0.124023,0.115756 0.02326,0.02689 0.04619,0.05912 0.06873,0.09509 0.15775,0.251793 0.288912,0.701246 0.263552,1.009239 -0.0218,0.264121 -0.175623,0.64008 -0.362252,0.93431 v 5.16e-4 c -0.06214,0.09793 -0.128,0.18682 -0.193786,0.259416 -0.62711,0.731221 -0.887508,0.491085 -1.276408,0.446485 -0.204928,-0.02347 -0.261194,-0.551053 -0.460955,-0.365353 -0.183681,0.170691 -0.02988,0.413859 0.116271,0.621668 0.02917,0.04148 0.05859,0.07795 0.08837,0.110072 0.11912,0.128484 0.244845,0.185242 0.39429,0.19482 0.112085,0.0072 0.23759,-0.01206 0.382923,-0.04754 0.145338,-0.03548 0.25958,-0.08264 0.362768,-0.146761 0.171981,-0.106868 0.313277,-0.260729 0.516765,-0.485241 0.49906,-0.550585 0.726165,-0.999961 0.775663,-1.600419 0.01855,-0.22496 0.0182,-0.417947 -0.0062,-0.58963 -0.0081,-0.0571 -0.01945,-0.112376 -0.03307,-0.165364 -0.05473,-0.21254 -0.154885,-0.395402 -0.312643,-0.577742 -0.93132,-1.076441 -2.320784,-0.433623 -3.497976,0.976167 -0.209976,0.251463 -0.39388,0.501105 -0.55294,0.748276 v 5.16e-4 c -1.113158,1.730031 -0.999334,3.327731 0.06666,4.412134 0.263732,0.268295 0.551612,0.479586 0.858346,0.634071 0.122692,0.06179 0.248264,0.114567 0.376719,0.158128 0.578067,0.196025 1.211334,0.207545 1.870689,0.03359 0.586091,-0.154593 1.192868,-0.455507 1.799889,-0.903303 0.60702,-0.447794 1.214244,-1.042551 1.801439,-1.784387 0.587103,-0.74171 1.096007,-1.536782 1.482082,-2.348693 v -5.16e-4 c 0.386093,-0.812057 0.64951,-1.640843 0.746723,-2.450497 0.08042,-0.669782 0.08261,-1.373026 0.0016,-2.046904 -0.01352,-0.11217 -0.02937,-0.224049 -0.04754,-0.334346 -0.0182,-0.110464 -0.03856,-0.21961 -0.0615,-0.327628 0.187397,0.152802 0.370623,0.307017 0.548804,0.462502 0.356365,0.310973 0.691893,0.626679 0.995804,0.942578 0.531847,0.552831 0.967486,1.107408 1.251088,1.642795 0.121436,0.229307 0.215188,0.455253 0.276468,0.675926 0.637511,2.295702 1.429512,3.985519 2.321822,5.13457 -0.787894,0.853043 -2.273038,2.548046 -2.789494,3.747059 -0.495162,1.149622 -0.772528,2.471975 -0.590661,3.708818 0.119071,0.809789 1.068152,2.204516 1.068152,2.204516 0,0 1.530175,-0.709049 2.048455,-1.342554 0.791601,-0.967584 1.233424,-2.244384 1.399397,-3.485058 0.142769,-1.06722 -0.107297,-2.762353 -0.332796,-3.965133 0.179755,0.158827 0.362196,0.301652 0.54777,0.422715 0.206748,0.134874 0.416914,0.246369 0.629935,0.33538 0.526902,0.220149 1.011119,0.312814 1.450041,0.306441 0.219462,-0.0032 0.42794,-0.03109 0.62425,-0.0801 0.88324,-0.22052 1.528369,-0.868667 1.900143,-1.615922 v -5.16e-4 c 0.04131,-0.08305 0.07918,-0.167132 0.113688,-0.252182 0.108342,-0.620612 0.0554,-1.159121 -0.05116,-1.613853 -0.106633,-0.454871 -0.266989,-0.826315 -0.373103,-1.114663 -0.0132,-0.03588 -0.02743,-0.06748 -0.04237,-0.09405 -0.225237,-0.399796 -0.625089,0.212633 -0.522449,0.506429 0.337309,0.965642 0.372208,1.731452 0.197921,2.294951 v 5.16e-4 c -0.0082,0.02641 -0.02037,0.04891 -0.02946,0.07441 -0.05549,0.155964 -0.124444,0.298513 -0.211357,0.421163 -0.354002,0.499552 -0.950039,0.722265 -1.641242,0.663525 h -5.18e-4 c -1.678648,-0.142979 -3.915454,-1.945407 -4.592541,-5.471512 -0.102392,-0.654849 -0.314651,-1.637723 -0.471289,-2.184363 -0.07827,-0.273124 -0.130125,-0.541512 -0.150379,-0.752925 -0.02021,-0.211484 -0.0088,-0.366329 0.03876,-0.413927 0.157898,-0.157909 1.773314,0.791181 3.227191,1.556493 0.484627,0.255104 0.951164,0.489852 1.339969,0.656291 2.104787,0.901012 3.815223,1.880172 6.1712,2.550232 0.54369,0.154627 1.12199,0.292854 1.747185,0.409794 0.34276,0.06411 0.64583,0.12138 0.91571,0.174665 0.80961,0.159864 1.31915,0.282326 1.69498,0.435115 0.0626,0.02545 0.12178,0.05212 0.17777,0.07958 0.11198,0.05493 0.2118,0.114173 0.30644,0.180867 0.2366,0.166732 0.43852,0.378187 0.70177,0.673343 1.22413,1.372539 1.54984,2.264442 1.65933,4.538742 0.0185,0.384823 0.0284,0.702043 0.0279,0.963247 -10e-4,0.52206 -0.0434,0.821685 -0.14108,0.996839 v 5.16e-4 c -0.0488,0.08739 -0.11149,0.143812 -0.18965,0.181385 -0.21829,0.104931 -0.66019,0.326181 -0.98186,0.491961 -0.32167,0.165568 -0.74143,0.241041 -0.93327,0.167431 -0.19182,-0.0736 -0.58338,0.04079 -0.87023,0.25373 -0.0521,0.03871 -0.0983,0.07547 -0.13901,0.110588 h -5.2e-4 c -0.0199,0.01717 -0.0344,0.03306 -0.0517,0.04961 -0.0179,0.01723 -0.0386,0.03547 -0.0537,0.05219 -0.17776,0.197149 -0.16015,0.366305 0.0145,0.65319 0.4641,0.7625 1.75796,0.744778 2.68666,-0.03669 0.23948,-0.201512 0.44038,-0.354896 0.6103,-0.461473 0.16969,-0.106399 0.30866,-0.16587 0.42426,-0.179316 h 5.2e-4 c 0.0868,-0.01 0.15994,0.006 0.22376,0.04754 0.0213,0.01384 0.0418,0.0306 0.061,0.05012 0.0767,0.07812 0.13801,0.201375 0.1912,0.36897 0.0875,0.27577 0.7455,1.049663 1.46193,1.719791 0.71745,0.671095 1.3045,1.066456 1.84639,1.193726 0.15483,0.03636 0.30587,0.05059 0.45527,0.04341 0.52291,-0.02514 1.02499,-0.315807 1.5906,-0.864029 0.1406,-0.136273 0.26407,-0.269761 0.37001,-0.401526 v -5.16e-4 c 0.74189,-0.923028 0.63374,-1.759254 -0.31885,-2.844271 -0.59111,-0.673237 -1.07626,-0.967174 -1.50016,-0.888836 h -5.2e-4 c -0.25415,0.04714 -0.4864,0.228195 -0.7059,0.541571 -0.62275,0.8891 -0.49782,1.080129 0.37104,0.56689 0.74937,-0.44261 0.80623,-0.441692 1.32291,0.02584 0.23192,0.209886 0.38589,0.461264 0.46303,0.730705 0.16942,0.592659 -0.0326,1.274252 -0.59377,1.80144 -0.64393,0.60493 -0.7144,0.614571 -1.77457,0.24443 -1.45226,-0.507051 -2.95908,-2.402126 -2.74815,-3.456636 0.16553,-0.827619 -0.23254,-3.69443 -0.67593,-4.86637 -0.16517,-0.436571 -0.57925,-1.172835 -0.91984,-1.636075 -0.34054,-0.46323 -0.61908,-0.893532 -0.61908,-0.956532 0,-0.0629 1.51806,-0.104923 3.37344,-0.09302 0.52723,0.0034 1.19088,-0.0032 1.90324,-0.01499 1.4471,0.802457 2.80038,1.613487 3.73827,2.35231 0.63633,0.501329 1.10485,0.978318 1.40353,1.455727 0.27049,0.432313 0.40873,0.873506 0.40825,1.376142 -10e-4,0.514451 -0.10118,1.101903 -0.28061,1.743562 -0.17229,0.616249 -0.41017,1.255406 -0.67644,1.890324 -0.26026,0.620646 -0.53821,1.214429 -0.7953,1.760101 -0.2514,0.533648 -0.4798,1.015026 -0.63149,1.392679 -0.003,0.0048 -0.005,0.0098 -0.006,0.01447 -0.44305,1.185161 -0.36044,2.170586 0.0227,2.925919 0.38399,0.75657 1.05235,1.251455 1.72703,1.5012 0.20715,0.07667 0.41603,0.128313 0.62167,0.160714 -0.13281,0.554931 -0.60149,2.625005 -0.45837,3.790465 0.11441,0.931641 0.43538,1.8922 1.02112,2.62413 0.38349,0.479224 1.52549,1.02371 1.52549,1.02371 0,0 0.72224,-1.038619 0.81804,-1.644859 0.14639,-0.925952 -0.0504,-1.91933 -0.41238,-2.785361 -0.41737,-0.998522 -1.6841,-2.425319 -2.19211,-2.976044 0.0333,0.0019 0.0674,0.0056 0.10025,0.0062 0.33301,0.006 0.42374,-0.142624 0.64441,-0.152445 0.25342,-0.01132 0.60559,0.116827 0.88211,0.189653 0.38426,0.573707 1.82338,2.665886 2.96468,3.487127 0.914,0.657658 2.0222,1.157343 3.14399,1.237133 0.73444,0.0523 2.14302,-0.51108 2.14302,-0.51108 0,0 -0.32572,-1.481817 -0.78186,-2.059823 -0.69666,-0.882822 -1.73278,-1.518674 -2.79053,-1.904794 -1.35143,-0.493318 -3.98298,-0.495967 -4.59403,-0.490408 -0.13545,-0.0921 -0.28635,-0.18593 -0.40463,-0.226861 -0.13598,-0.04702 -0.28557,-0.04454 -0.42943,-0.04237 -0.001,1.8e-5 -0.003,5.15e-4 -0.004,5.15e-4 0.75631,-0.494667 2.03218,-1.385368 2.59933,-2.118733 0.5742,-0.742516 1.0226,-1.651071 1.12137,-2.583304 0.0647,-0.610346 -0.36431,-1.800407 -0.36431,-1.800407 0,0 -1.24375,0.229367 -1.7384,0.592727 -0.75553,0.554972 -1.31496,1.39954 -1.66708,2.26963 -0.4273,1.05587 -0.51882,3.086127 -0.53847,3.733104 -0.0549,0.0055 -0.11054,0.01021 -0.17053,0.0062 -0.28324,-0.01894 -0.58762,-0.09039 -0.8847,-0.216008 -0.58696,-0.248174 -1.12831,-0.699447 -1.418,-1.334283 -0.28195,-0.617988 -0.338,-1.437085 0.077,-2.469619 0.17354,-0.347969 0.41915,-0.793342 0.70331,-1.321882 0.28584,-0.531675 0.59945,-1.127225 0.89555,-1.752348 0.30282,-0.639321 0.58358,-1.301491 0.79841,-1.955435 0.22243,-0.677082 0.37472,-1.346018 0.40721,-1.974041 0.0358,-0.701323 -0.12955,-1.340458 -0.47336,-1.946134 -0.36599,-0.644721 -0.92499,-1.233953 -1.603,-1.796272 -0.46415,-0.38494 -1.01998,-0.780989 -1.63195,-1.179256 -0.17756,-0.115562 -0.36841,-0.231537 -0.55448,-0.347266 0.49092,-0.01505 0.98529,-0.02984 1.46244,-0.04858 0.66447,-0.02609 1.3008,-0.0555 1.8681,-0.08682 0.47716,-0.02635 0.90179,-0.04921 1.28261,-0.0677 h 5.2e-4 c 0.38093,-0.01849 0.71799,-0.03275 1.02061,-0.04238 0.60525,-0.01926 1.07169,-0.01965 1.47226,0.0026 0.80114,0.04441 1.33795,0.17971 2.18901,0.438216 1.38034,0.419264 2.23837,0.901319 2.72077,1.566828 0.21913,0.302416 0.3608,0.642818 0.43873,1.032497 0.0528,0.263771 0.0704,0.458147 0.0253,0.636653 v 5.16e-4 c -0.0753,0.297312 -0.32488,0.550281 -0.8754,1.004073 -1.1433,0.94239 -2.21405,0.705985 -2.8422,0.01188 -0.19668,-0.217318 -0.29373,-0.430067 -0.30179,-0.698664 v -5.19e-4 c -0.002,-0.05362 2.3e-4,-0.109887 0.006,-0.168463 0.0109,-0.117512 0.0359,-0.245805 0.0739,-0.389125 0.16866,-0.6355 0.36854,-0.798213 1.06712,-0.866614 0.11054,-0.01082 0.22048,-0.01347 0.32762,-0.0088 0.21428,0.0094 0.41735,0.04802 0.59325,0.106453 0.26385,0.08764 0.46628,0.220731 0.55087,0.369488 0.0562,0.09905 0.0603,0.205213 -0.004,0.309541 -0.19503,0.681879 -1.46321,-0.067 -1.60404,0.677479 0.066,0.118329 0.13886,0.209796 0.21705,0.279569 v 5.16e-4 c 0.0391,0.03488 0.0795,0.06388 0.12092,0.08837 0.12418,0.07348 0.25789,0.102981 0.39377,0.10387 0.0906,5.32e-4 0.18208,-0.01148 0.27285,-0.03152 0.36308,-0.0801 0.84407,-0.188872 1.04955,-0.557072 0.0513,-0.09192 0.0915,-0.199184 0.11989,-0.314193 v -5.16e-4 c 0.0853,-0.345585 0.0632,-0.762486 -0.0935,-1.055751 -0.209,-0.390977 -0.78882,-0.660812 -1.66915,-0.809251 -1.83326,0 -2.6888,2.244939 -1.50585,3.520715 0.0789,0.08505 0.16677,0.165846 0.26407,0.241329 0.0722,0.05603 0.15102,0.105254 0.23513,0.147796 0.16821,0.08502 0.35819,0.143523 0.56224,0.17725 1.12212,0.185462 2.66821,-0.376717 3.34139,-1.376146 v -5.16e-4 c 0.0917,-0.136176 0.16725,-0.280387 0.22325,-0.432014 v -5.16e-4 c 0.0187,-0.0506 0.0354,-0.101796 0.0496,-0.153995 0.0899,-0.330272 0.21268,-0.565497 0.34778,-0.681096 0.027,-0.0231 0.0542,-0.04143 0.0822,-0.05478 0.0558,-0.02663 0.11318,-0.0335 0.17053,-0.0186 0.2029,0.0527 1.24617,0.196871 2.31821,0.32091 0.51333,0.0594 0.95675,0.09543 1.34255,0.102838 0.2572,0.0049 0.48871,-0.003 0.69815,-0.02532 1.15193,-0.122605 1.63566,-0.681281 2.04483,-1.948201 0.0469,-0.314912 0.0826,-0.555591 0.10542,-0.753959 v -5.16e-4 c 0.0228,-0.198446 0.0327,-0.354431 0.0274,-0.500745 -0.0105,-0.29263 -0.0811,-0.545563 -0.22685,-1.015442 -1.14942,-1.859791 -4.01783,-2.668029 -4.85811,-1.368909 -0.7555,1.168029 -0.80045,2.026745 -0.14262,2.726965 0.70737,0.75297 1.46555,0.826542 2.14819,0.208772 0.56997,-0.51584 0.6505,-1.678966 0.11627,-1.678966 -0.20211,0 -0.35093,0.191809 -0.33073,0.426331 0.0566,0.657338 -0.75342,1.074335 -1.26401,0.650605 -0.48708,-0.404249 -0.5268,-0.978691 -0.12402,-1.616438 0.0575,-0.09111 0.12387,-0.183613 0.19947,-0.276987 0.4619,-0.570418 0.56646,-0.589153 1.58078,-0.285252 0.69702,0.20883 1.3392,0.657436 1.79318,1.252635 0.65614,0.860261 0.68449,1.002866 0.39429,1.971458 -0.17206,0.574278 -0.53859,1.165204 -0.81494,1.313098 -1.30449,0.698148 -5.15416,-0.134064 -6.25595,-1.352373 -0.76209,-0.842661 -2.22724,-1.49371 -4.16667,-1.851051 -0.96604,-0.17802 -1.75648,-0.397209 -1.75648,-0.487307 0,-0.0901 0.74414,-0.501555 1.65364,-0.914673 5.26929,-2.482013 8.75135,-5.063942 9.75186,-9.807671 0.422,-0.141815 0.86729,-0.334707 1.3255,-0.590661 0.89655,-0.500805 1.72558,-1.174245 2.45102,-1.950269 1.39617,-1.41393 2.08672,-2.951907 2.42,-4.314982 0.36578,-0.679759 1.67009,-3.177722 1.88309,-4.724259 0.0427,-0.310005 0.0694,-0.626519 0.0775,-0.945162 0.003,-0.119491 0.003,-0.239392 0.001,-0.359151 z m -1.72858,-1.698605 c 0.002,0.150277 -0.003,0.274594 -0.0134,0.4377 -0.0246,0.36536 -0.12692,1.101984 -0.28163,2.023649 -0.0453,0.27177 -0.0997,0.612754 -0.11989,0.758093 -0.0756,0.539006 -0.12275,1.076547 -0.13591,1.545125 -0.0122,0.444321 -0.0102,0.557438 0.0305,1.186491 0.0412,0.645828 0.0502,0.730501 0.12144,1.17874 0.0608,0.381794 0.0602,0.424786 -0.003,0.321944 h 5.1e-4 c -0.072,-0.117663 -0.18283,-0.441747 -0.26458,-0.775147 -0.0564,-0.230487 -0.1436,-0.672708 -0.20877,-1.057816 -0.0476,-0.281005 -0.0542,-0.334263 -0.0786,-0.628385 -0.0455,-0.55 -0.0539,-0.91027 -0.0357,-1.501201 0.009,-0.31387 0.0235,-0.509676 0.0636,-0.907955 0.0544,-0.533961 0.0912,-0.783349 0.26458,-1.787488 0.0778,-0.451044 0.17021,-1.0684713 0.21549,-1.4443563 0.0355,-0.298784 0.0669,-0.679717 0.0847,-1.061951 0.0189,-0.398071 0.0213,-0.412656 0.0403,-0.394291 0.0404,0.0391 0.1596,0.439346 0.20774,0.695565 0.0452,0.240776 0.0533,0.319879 0.0848,0.816488 0.017,0.267932 0.0258,0.444519 0.0279,0.5947953 z m -11.07529,47.38057 c 0.006,0.02483 -0.006,0.02023 -0.34468,-0.137975 -0.32499,-0.152241 -0.65567,-0.29129 -0.91984,-0.391192 -0.33263,-0.125158 -0.88749,-0.315523 -1.2976,-0.444934 -0.91303,-0.287996 -1.13667,-0.3649 -1.60455,-0.551386 -0.34874,-0.139557 -0.51725,-0.213341 -0.78187,-0.342617 -0.49833,-0.243197 -0.79289,-0.409022 -1.22731,-0.690912 -0.23235,-0.150698 -0.27314,-0.180123 -0.48369,-0.345715 -0.2886,-0.226827 -0.61421,-0.498385 -0.77877,-0.649573 -0.23801,-0.218765 -0.45503,-0.45874 -0.51883,-0.574125 -0.0558,-0.100885 -0.0198,-0.08237 0.2682,0.13901 0.3381,0.259879 0.40401,0.305059 0.91984,0.625284 0.50239,0.311936 0.59446,0.364054 0.96842,0.548286 0.39439,0.194273 0.86213,0.388651 1.3441,0.558622 0.1299,0.04595 0.43781,0.148098 0.6842,0.227378 0.83598,0.268266 1.49439,0.501544 1.80867,0.640271 0.28043,0.124116 0.41991,0.200625 0.84801,0.466121 0.3968,0.245899 0.45883,0.28829 0.63718,0.434081 0.18977,0.155141 0.46512,0.436475 0.47852,0.489376 z m -5.50096,-10.748698 c 0.011,0.04094 -0.0668,0.348007 -0.13487,0.533818 -0.0641,0.174607 -0.0894,0.229402 -0.26149,0.565857 -0.18552,0.363119 -0.25034,0.475228 -0.39067,0.680061 -0.15735,0.229288 -0.50858,0.671412 -0.96532,1.214398 -0.13445,0.160221 -0.3017,0.362373 -0.37103,0.449585 -0.25753,0.323194 -0.4963,0.655944 -0.68626,0.957045 -0.17994,0.285616 -0.22178,0.360569 -0.43925,0.787033 -0.22357,0.437676 -0.25112,0.496422 -0.37879,0.816488 -0.10864,0.272682 -0.12533,0.300519 -0.12609,0.209291 -8.5e-4,-0.10441 0.0533,-0.358643 0.1297,-0.607716 0.0525,-0.172255 0.16784,-0.494491 0.27492,-0.771012 0.0781,-0.201795 0.094,-0.238829 0.19224,-0.440283 0.18359,-0.376743 0.31803,-0.615693 0.55862,-0.994772 0.12761,-0.201446 0.21264,-0.32357 0.39274,-0.568442 0.24189,-0.328049 0.36229,-0.476861 0.863,-1.066601 0.22483,-0.264933 0.52336,-0.633188 0.69815,-0.861446 0.13855,-0.181647 0.30661,-0.418532 0.46612,-0.661459 0.16637,-0.252854 0.17308,-0.261136 0.17828,-0.241845 z m -2.34611,13.556279 c -0.002,0.108421 -0.007,0.19713 -0.0181,0.21549 -0.01,0.01728 -0.0144,0.0073 -0.10955,-0.280085 -0.091,-0.275982 -0.19235,-0.548275 -0.27905,-0.759643 -0.10961,-0.265811 -0.30219,-0.699196 -0.45062,-1.013375 -0.33062,-0.699421 -0.40854,-0.874112 -0.55707,-1.25367 -0.11043,-0.283202 -0.16051,-0.423474 -0.23151,-0.651124 -0.13404,-0.428503 -0.20152,-0.693893 -0.28112,-1.10536 -0.0426,-0.22003 -0.0487,-0.260276 -0.0718,-0.475422 -0.0317,-0.294831 -0.0596,-0.635484 -0.0656,-0.815454 -0.009,-0.260368 0.004,-0.520015 0.032,-0.620636 0.0244,-0.08791 0.0335,-0.05691 0.0677,0.234612 0.0403,0.342228 0.0516,0.406085 0.15399,0.886769 0.0994,0.468273 0.12096,0.551344 0.22066,0.873848 0.10537,0.340069 0.24904,0.723847 0.41393,1.102775 0.0443,0.102209 0.15354,0.340595 0.24184,0.530199 0.30028,0.642892 0.52504,1.161438 0.61754,1.423685 0.0824,0.234225 0.1155,0.358765 0.2005,0.757579 0.0789,0.36956 0.0893,0.429181 0.10594,0.614431 0.009,0.09856 0.0119,0.22696 0.0103,0.335381 z m -8.32559,-36.408113 c -0.004,0.01345 -0.0502,0.0511 -0.21962,0.185518 -0.21703,0.171828 -0.42589,0.353459 -0.58395,0.504362 -0.19851,0.190327 -0.51542,0.516845 -0.74104,0.763261 -0.5022,0.548703 -0.62993,0.680362 -0.91725,0.943095 -0.2146,0.195606 -0.32262,0.288004 -0.50385,0.42478 -0.34051,0.258474 -0.55855,0.400675 -0.90899,0.593246 -0.18738,0.102997 -0.22285,0.120317 -0.41496,0.199988 -0.26324,0.109225 -0.57209,0.224467 -0.73897,0.276469 -0.2412,0.07499 -0.4924,0.124423 -0.601,0.117821 h -5.1e-4 c -0.094,-0.0062 -0.0686,-0.02447 0.18965,-0.135392 0.30392,-0.130686 0.35884,-0.158766 0.76378,-0.39429 0.39471,-0.228966 0.46302,-0.27395 0.71985,-0.467157 0.2707,-0.203975 0.5639,-0.463018 0.84284,-0.744139 0.0753,-0.07568 0.2482,-0.258397 0.38499,-0.40566 0.46332,-0.500256 0.84514,-0.883614 1.04852,-1.053683 0.18172,-0.151645 0.28372,-0.220434 0.6196,-0.415995 0.31121,-0.181312 0.3627,-0.20798 0.52968,-0.272852 0.17771,-0.06899 0.47862,-0.142511 0.52348,-0.12764 0.005,0.0018 0.009,0.0038 0.008,0.0083 z m -6.46059,3.470589 c 0.004,0.0072 0.004,0.01134 -0.002,0.01344 -0.008,0.0026 -0.024,0.0011 -0.0475,-0.0026 -0.10721,-0.01721 -0.34148,-0.12037 -0.56068,-0.246496 -0.15146,-0.08726 -0.42799,-0.26782 -0.66094,-0.432015 -0.17002,-0.119782 -0.20039,-0.143735 -0.36071,-0.285253 -0.29978,-0.264601 -0.48137,-0.451512 -0.75706,-0.778248 -0.14689,-0.173127 -0.23238,-0.287206 -0.39894,-0.525032 -0.222847,-0.31925 -0.31892,-0.475027 -0.688844,-1.120345 -0.166209,-0.289822 -0.403993,-0.677761 -0.556038,-0.906922 -0.121198,-0.181839 -0.284734,-0.404956 -0.458888,-0.620117 -0.181099,-0.224304 -0.186452,-0.233444 -0.16433,-0.235644 0.04703,-0.0047 0.324361,0.133041 0.482658,0.239262 0.14873,0.09984 0.19335,0.136847 0.457335,0.381888 0.284933,0.264333 0.369022,0.353828 0.513146,0.541569 0.161237,0.210459 0.450121,0.668266 0.792721,1.257805 0.10124,0.173633 0.22989,0.389754 0.2868,0.480074 0.21065,0.335358 0.44043,0.652258 0.65991,0.910539 0.20831,0.244735 0.26493,0.303583 0.59996,0.6134 0.34357,0.318442 0.39093,0.357867 0.65888,0.551902 0.12842,0.09292 0.19107,0.141142 0.20463,0.162782 z M 90.259734,39.370152 c -0.0079,0.240027 -0.04255,0.695007 -0.08371,1.088305 -0.02999,0.286991 -0.03806,0.341001 -0.09405,0.634588 -0.104645,0.54901 -0.193926,0.902856 -0.371038,1.474845 -0.09342,0.303988 -0.160256,0.491083 -0.306441,0.869199 -0.196598,0.506719 -0.299228,0.740333 -0.737422,1.674315 -0.196766,0.419547 -0.452766,0.998037 -0.597895,1.352889 -0.11489,0.282196 -0.248087,0.645517 -0.368454,1.013891 -0.125695,0.383521 -0.131334,0.39661 -0.144695,0.373621 -0.02836,-0.04894 -0.0357,-0.471379 -0.01292,-0.734322 0.02144,-0.247084 0.03518,-0.326451 0.139009,-0.819587 0.111909,-0.532164 0.155591,-0.698661 0.264584,-1.011309 0.122356,-0.350091 0.420076,-1.04222 0.818036,-1.900658 0.117041,-0.253214 0.261149,-0.571481 0.319878,-0.707969 0.218395,-0.505998 0.409086,-1.018363 0.548286,-1.472261 0.131728,-0.430472 0.160321,-0.540917 0.290938,-1.16582 0.134668,-0.641411 0.14917,-0.726853 0.201539,-1.183389 0.04448,-0.388908 0.05616,-0.430427 0.0894,-0.313161 0.03766,0.134051 0.05618,0.479579 0.04496,0.826823 z M 63.717168,15.731802 c 0.007,0.0097 -0.01205,0.01789 -0.05012,0.02739 v -5.17e-4 c -0.115991,0.02852 -0.401114,0.02659 -0.681612,-0.0047 -0.193868,-0.02173 -0.557239,-0.0822 -0.869714,-0.145211 -0.228021,-0.04594 -0.270579,-0.05713 -0.499195,-0.128674 -0.427529,-0.133674 -0.699317,-0.240583 -1.132237,-0.44592 -0.230203,-0.108451 -0.370308,-0.184839 -0.651121,-0.348816 -0.376229,-0.220426 -0.54675,-0.333561 -1.226282,-0.813386 -0.305261,-0.215472 -0.729055,-0.497284 -0.991153,-0.658875 -0.208529,-0.127993 -0.479925,-0.27867 -0.757577,-0.417029 -0.289015,-0.144421 -0.298672,-0.151181 -0.277503,-0.162781 0.04503,-0.02465 0.390182,-0.0065 0.599964,0.03101 0.197118,0.0353 0.259094,0.05277 0.641303,0.182418 0.412464,0.13978 0.539721,0.192197 0.774115,0.31626 0.262406,0.139223 0.770845,0.468484 1.396296,0.904854 0.184552,0.128378 0.417523,0.286947 0.517798,0.351917 0.185817,0.120762 0.373761,0.235356 0.558622,0.339514 0.184862,0.104157 0.366559,0.198222 0.53847,0.279053 0.326093,0.153027 0.411041,0.187001 0.895551,0.350366 0.4972,0.168264 0.563647,0.186983 0.925526,0.264583 0.192677,0.04123 0.27728,0.06242 0.288869,0.07855 z M 35.100827,6.6966947 c -0.0053,0.006 -0.02201,0.01341 -0.04651,0.02274 h -5.16e-4 c -0.114091,0.04284 -0.41108,0.08743 -0.710552,0.106971 -0.207208,0.01346 -0.600834,0.02195 -0.941543,0.02015 -0.24864,-0.0012 -0.295442,-0.0032 -0.550871,-0.02584 -0.477649,-0.04221 -0.786153,-0.08787 -1.286742,-0.189135 -0.266013,-0.05324 -0.430605,-0.09403 -0.762747,-0.185519 -0.445219,-0.123102 -0.650488,-0.189808 -1.474327,-0.480591 -0.37007,-0.130572 -0.879568,-0.297652 -1.191658,-0.390157 -0.248169,-0.07309 -0.567188,-0.15481 -0.889868,-0.225309 -0.335659,-0.07371 -0.347861,-0.0778 -0.328663,-0.09095 0.0409,-0.02795 0.404932,-0.06903 0.632521,-0.07183 0.21387,-0.0026 0.282641,0.0019 0.712099,0.04806 0.463452,0.04973 0.609002,0.07288 0.883152,0.138493 0.306988,0.07375 0.916252,0.266465 1.673281,0.529684 0.223282,0.07734 0.504103,0.172287 0.624252,0.210323 0.44554,0.141493 0.894731,0.25924 1.291911,0.33848 0.3767,0.07487 0.473845,0.08956 1.018026,0.147278 0.55857,0.05977 0.632143,0.06485 1.027843,0.0708 0.252812,0.0037 0.336913,0.0083 0.320911,0.02636 z M 16.966535,46.09739 c -0.002,0.0046 -0.0038,0.0034 -0.0088,0.001 -0.0387,-0.02106 -0.215042,-0.299326 -0.30644,-0.483693 -0.0859,-0.173259 -0.109051,-0.232013 -0.239779,-0.602546 -0.141181,-0.399793 -0.179477,-0.528412 -0.233579,-0.78083 -0.0604,-0.282774 -0.142925,-0.864243 -0.225825,-1.597319 -0.0247,-0.216088 -0.05718,-0.486804 -0.07338,-0.601514 -0.0597,-0.425546 -0.140726,-0.84377 -0.232026,-1.20251 -0.0868,-0.340109 -0.112723,-0.42536 -0.279054,-0.89452 -0.170299,-0.48179 -0.195016,-0.544411 -0.345196,-0.869714 -0.127701,-0.276437 -0.136898,-0.308996 -0.0677,-0.244946 0.0794,0.07402 0.232579,0.296439 0.365868,0.532268 0.09209,0.16306 0.25296,0.480486 0.38499,0.759126 0.0964,0.203303 0.112601,0.242197 0.194302,0.460436 0.15285,0.408083 0.23749,0.679995 0.351401,1.132747 0.06099,0.24034 0.09189,0.392237 0.147794,0.703318 0.0745,0.417195 0.100885,0.61417 0.187584,1.413868 0.03901,0.359198 0.103179,0.848423 0.150379,1.143598 0.03792,0.234526 0.09616,0.530614 0.165364,0.824756 0.0539,0.229799 0.06808,0.293082 0.06408,0.306441 z M 11.47643,18.938325 h -5.16e-4 c -0.0056,0.35573 -0.01603,0.52236 -0.07493,1.195276 -0.0264,0.302249 -0.0525,0.715542 -0.0615,0.966349 -0.0064,0.199319 -0.0052,0.452946 0.0052,0.706417 0.0103,0.264 0.01,0.273059 -0.0041,0.261999 -0.0298,-0.02352 -0.135035,-0.280981 -0.182936,-0.447518 -0.04494,-0.156527 -0.05533,-0.208593 -0.105936,-0.534851 -0.0548,-0.35204 -0.06628,-0.463893 -0.07028,-0.680578 -0.0047,-0.242689 0.02135,-0.734975 0.07235,-1.352372 0.0148,-0.182018 0.03221,-0.410343 0.03721,-0.507463 0.0202,-0.360216 0.02067,-0.718116 0.0021,-1.028361 -0.0179,-0.294151 -0.02635,-0.368621 -0.09095,-0.781865 -0.06603,-0.424294 -0.07703,-0.479938 -0.151929,-0.772045 -0.0639,-0.248197 -0.06555,-0.276717 -0.01705,-0.212907 v 5.16e-4 c 0.02792,0.03693 0.06552,0.107347 0.105421,0.195337 0.03998,0.08817 0.08229,0.193952 0.119888,0.301791 0.05234,0.148968 0.137538,0.436048 0.204639,0.686779 0.0489,0.182957 0.05653,0.217914 0.09043,0.410828 0.06337,0.360736 0.09077,0.598291 0.11317,0.989604 0.012,0.207827 0.01382,0.337764 0.0098,0.603064 z m -0.479557,-3.881417 c -0.003,0.01773 -0.04968,-0.02773 -0.184483,-0.170015 -0.211122,-0.222626 -0.252939,-0.262453 -0.583428,-0.551905 -0.3217202,-0.282147 -0.3816082,-0.33002 -0.6263192,-0.508496 -0.25822,-0.188073 -0.568489,-0.387617 -0.891418,-0.573091 -0.087,-0.0501 -0.294039,-0.164378 -0.45992,-0.254249 -0.563081,-0.304239 -1.003837,-0.558299 -1.211297,-0.697631 -0.185139,-0.12455 -0.276122,-0.196017 -0.550352,-0.436149 -0.254211,-0.222456 -0.293168,-0.25977 -0.403595,-0.382923 -0.117449,-0.131076 -0.281771,-0.357988 -0.285768,-0.394808 -0.0017,-0.01737 0.0068,-0.01269 0.229441,0.143144 0.213672,0.14982 0.43253,0.291771 0.608751,0.397909 0.222019,0.133159 0.594317,0.343087 0.870746,0.490926 0.615521,0.329016 0.765818,0.414007 1.076936,0.608231 0.23187,0.145115 0.343564,0.219016 0.516766,0.344682 0.32631,0.236339 0.516818,0.390478 0.79375,0.642338 0.1481082,0.134665 0.1738202,0.160186 0.3048902,0.301274 0.179649,0.193324 0.380791,0.42144 0.480592,0.546219 0.144719,0.180264 0.27229,0.3712 0.304889,0.45682 0.007,0.0187 0.01082,0.03182 0.0098,0.03772 z m -1.2975932,1.089339 c 0.01428,0.01917 -0.06769,0.01967 -0.315743,0.01137 -0.388292,-0.01303 -0.461376,-0.01154 -1.013376,0.02274 -0.537659,0.03335 -0.633915,0.04291 -1.008724,0.101802 -0.395279,0.06213 -0.844568,0.161433 -1.291912,0.285254 -0.120629,0.03327 -0.403217,0.116819 -0.627867,0.185518 -0.761842,0.233623 -1.373024,0.402091 -1.679485,0.463021 -0.27364,0.05413 -0.418431,0.07058 -0.876433,0.09922 -0.424389,0.02668 -0.492336,0.02805 -0.701765,0.01499 -0.22285,-0.0139 -0.576016,-0.07413 -0.613915,-0.104903 -0.01785,-0.01442 -0.0062,-0.01754 0.32866,-0.077 0.32158,-0.05676 0.640075,-0.125539 0.888836,-0.188619 0.312889,-0.07987 0.825281,-0.226448 1.197859,-0.342614 0.829421,-0.258706 1.035934,-0.317258 1.481563,-0.422197 0.33246,-0.07782 0.496544,-0.111029 0.761193,-0.153479 0.498243,-0.08011 0.804532,-0.112092 1.275893,-0.132292 0.25206,-0.01085 0.297767,-0.01078 0.54157,0 0.334079,0.01467 0.71932,0.04277 0.92139,0.06666 0.292309,0.03462 0.579919,0.09511 0.68833,0.144694 0.0237,0.01084 0.03892,0.01944 0.04393,0.02584 z"
     style="color:#000000;font-style:normal;font-variant:normal;font-weight:normal;font-stretch:normal;font-size:medium;line-height:normal;font-family:sans-serif;font-variant-ligatures:normal;font-variant-position:normal;font-variant-caps:normal;font-variant-numeric:normal;font-variant-alternates:normal;font-feature-settings:normal;text-indent:0;text-align:start;text-decoration:none;text-decoration-line:none;text-decoration-style:solid;text-decoration-color:#000000;letter-spacing:normal;word-spacing:normal;text-transform:none;writing-mode:lr-tb;direction:ltr;text-orientation:mixed;dominant-baseline:auto;baseline-shift:baseline;text-anchor:start;white-space:normal;shape-padding:0;clip-rule:nonzero;display:inline;overflow:visible;visibility:visible;opacity:1;isolation:auto;mix-blend-mode:normal;color-interpolation:sRGB;color-interpolation-filters:linearRGB;solid-color:#000000;solid-opacity:1;vector-effect:none;fill:#000000;fill-opacity:1;fill-rule:evenodd;stroke:none;stroke-width:0.92107338;stroke-linecap:butt;stroke-linejoin:miter;stroke-miterlimit:4;stroke-dasharray:none;stroke-dashoffset:0;stroke-opacity:1;color-rendering:auto;image-rendering:auto;shape-rendering:auto;text-rendering:auto;enable-background:accumulate" />
  <g
     transform="matrix(-0.46967115,0.97303567,-0.97776423,-0.52713475,259.1523,62.119375)"
     id="g1574" />
  <g
     transform="matrix(-0.71025839,0.52960521,-0.50738213,-0.74136734,143.81077,87.025735)"
     id="g1622">
    <g
       id="g1608" />
    <g
       id="g1614" />
    <g
       transform="matrix(-0.96578221,-0.25935442,-0.25935442,0.96578221,221.0326,28.614302)"
       id="g1620" />
  </g>
  <g
     transform="translate(-43.623213,-171.34861)"
     id="g1658">
    <g
       id="g1652" />
  </g>
  <g
     id="g1664"
     transform="matrix(0.91914496,0.39391945,-0.31513554,0.73531592,-77.19129,-130.2225)" />
  <g
     id="g1670"
     transform="rotate(-74.538793,1.8105005,101.18157)" />
  <g
     transform="matrix(0.63268379,0.69182242,-0.55345787,0.50614696,54.461509,-154.44323)"
     id="g1682" />
  <g
     id="g1688"
     transform="matrix(0.76876568,-0.53656907,-0.42925521,-0.61501246,29.453316,75.180815)" />
  <g
     transform="translate(-43.623213,-171.34861)"
     id="g2423" />
  <g
     id="g2429"
     transform="matrix(-0.96578221,-0.25935442,-0.25935442,0.96578221,177.40939,-142.73431)" />
  <g
     style="fill:#ffffff"
     transform="matrix(-0.71025839,0.52960521,-0.50738213,-0.74136734,143.81077,87.025735)"
     id="g2449" />
  <g
     transform="matrix(-0.71025839,0.52960521,-0.50738213,-0.74136734,143.81077,87.025735)"
     id="g2455" />
  <g
     transform="matrix(0.81754672,-0.31920639,-0.30581198,-0.85335484,-27.697874,182.87205)"
     id="g2461" />
</svg>
